<?xml version="1.0" standalone="no"?>
<!DOCTYPE svg PUBLIC "-//W3C//DTD SVG 20010904//EN"
 "http://www.w3.org/TR/2001/REC-SVG-20010904/DTD/svg10.dtd">
<svg version="1.0" xmlns="http://www.w3.org/2000/svg"
 width="800.000000pt" height="800.000000pt" viewBox="0 0 800.000000 800.000000"
 preserveAspectRatio="xMidYMid meet">
<metadata>
Created by potrace 1.14, written by Peter Selinger 2001-2017
</metadata>
<g transform="translate(0.000000,800.000000) scale(0.100000,-0.100000)"
fill="#000000" stroke="none">
<path d="M3575 7829 c-128 -10 -203 -23 -396 -65 -478 -104 -962 -316 -1424
-625 -123 -82 -246 -178 -170 -133 229 137 329 186 655 322 305 127 572 187
945 211 1077 71 1996 -257 2702 -966 536 -539 831 -1146 904 -1862 18 -180 6
-530 -25 -731 -43 -270 -138 -616 -231 -835 -86 -204 -194 -407 -272 -508 -66
-86 -214 -233 -298 -295 -87 -65 -245 -144 -345 -172 -107 -31 -339 -37 -578
-16 -523 46 -1069 -7 -1550 -150 -393 -117 -714 -281 -772 -394 -26 -51 -25
-79 3 -121 49 -74 154 -104 352 -103 107 0 155 6 270 32 77 17 226 44 330 61
408 64 461 66 553 20 69 -34 105 -72 138 -144 33 -74 38 -125 20 -189 -39
-133 -182 -207 -529 -273 -73 -14 -142 -18 -337 -17 -367 1 -602 34 -790 111
-98 40 -217 102 -316 166 -38 24 -177 110 -309 192 -132 82 -341 212 -465 289
-501 311 -724 434 -802 443 -103 12 -184 -39 -209 -129 -24 -91 3 -145 131
-263 389 -357 848 -717 1140 -892 110 -66 480 -264 590 -315 317 -149 594
-231 935 -278 286 -39 815 -51 1090 -25 641 61 1225 295 1717 688 216 172 472
454 691 760 485 679 770 1403 828 2105 15 180 6 584 -16 742 -69 498 -296
1097 -625 1650 -18 30 -71 111 -118 180 -391 571 -877 975 -1472 1222 -563
234 -1338 357 -1945 307z m3212 -1645 c55 -34 76 -109 47 -169 -23 -49 -67
-75 -127 -75 -145 0 -177 208 -39 255 41 15 85 10 119 -11z m266 -568 c56 -24
80 -59 85 -124 3 -48 0 -63 -20 -92 -29 -43 -69 -63 -123 -63 -54 0 -94 20
-123 63 -32 48 -28 136 9 176 46 51 111 66 172 40z m193 -625 c31 -14 47 -30
63 -63 26 -54 26 -81 1 -135 -25 -56 -70 -83 -138 -83 -47 0 -57 4 -93 38 -82
76 -65 198 34 243 53 23 81 23 133 0z m94 -634 c90 -48 114 -154 53 -241 -89
-127 -293 -58 -293 99 0 63 28 110 85 142 51 29 101 29 155 0z m-73 -663 c41
-31 73 -92 73 -142 0 -150 -165 -235 -279 -144 -20 16 -44 44 -53 63 -45 86 1
205 92 242 33 14 139 1 167 -19z m-197 -628 c100 -51 137 -186 78 -288 -51
-85 -170 -122 -263 -79 -158 71 -158 299 0 372 55 26 129 24 185 -5z m-398
-580 c130 -39 197 -171 157 -307 -55 -184 -326 -212 -424 -45 -52 89 -43 205
22 277 71 78 152 103 245 75z m-469 -562 c177 -60 222 -300 81 -424 -52 -45
-93 -60 -164 -60 -235 0 -339 306 -152 444 77 56 151 69 235 40z"/>
<path d="M2238 7125 c-15 -44 -58 -287 -69 -391 l-12 -111 -114 -17 c-324 -48
-601 -161 -707 -286 -90 -107 -163 -289 -201 -502 -43 -237 -54 -262 -266
-594 -104 -163 -189 -298 -189 -301 0 -2 4 -2 9 1 5 4 12 0 14 -6 7 -18 286
266 376 381 137 178 161 236 240 565 16 71 45 161 64 200 100 211 316 328 746
405 63 12 128 21 144 21 l29 0 -6 113 c-3 61 -11 202 -17 312 -10 188 -17 247
-20 179 -2 -24 -3 -22 -8 11 -5 31 -8 36 -13 20z"/>
<path d="M3012 7112 c-20 -36 -52 -171 -52 -221 0 -49 31 -175 55 -221 l14
-27 -62 -14 c-143 -30 -268 -123 -308 -228 -33 -89 -45 -172 -30 -220 6 -23
16 -39 21 -36 6 4 10 1 10 -4 0 -29 18 -5 29 39 28 108 137 233 234 267 55 19
170 22 627 14 277 -5 374 14 545 103 128 66 331 200 310 204 -8 2 -13 8 -10
13 9 14 0 11 -98 -30 -419 -175 -694 -218 -942 -146 -138 40 -220 102 -260
200 -23 54 -45 176 -45 248 0 40 -3 57 -9 48 -7 -11 -10 -9 -13 10 l-3 24 -13
-23z"/>
<path d="M4795 6319 c-184 -187 -347 -264 -717 -339 -292 -60 -453 -145 -653
-345 -74 -74 -175 -195 -175 -210 0 -3 10 -3 21 0 17 6 20 4 13 -6 -5 -9 3 -7
20 4 82 54 272 166 361 213 124 66 231 104 420 149 399 95 649 257 779 504 38
72 43 86 26 76 -5 -3 -10 1 -10 9 0 27 -13 18 -85 -55z"/>
<path d="M2390 5915 c-9 -11 -13 -53 -14 -128 -1 -137 21 -210 123 -422 101
-207 137 -344 126 -473 -11 -124 -58 -289 -111 -389 -166 -311 -238 -478 -253
-586 -13 -101 -6 -198 22 -287 32 -99 68 -161 157 -264 49 -57 76 -80 110 -92
82 -29 145 -56 158 -66 17 -14 15 -136 -3 -168 -19 -33 -19 -50 1 -50 9 0 12
-5 8 -11 -17 -29 -260 19 -307 59 -10 9 -25 42 -34 73 -10 36 -30 73 -55 103
-34 39 -45 46 -77 46 -20 0 -46 7 -57 15 -13 10 -45 14 -105 15 -71 0 -94 -4
-129 -23 -109 -57 -180 -261 -168 -476 4 -64 11 -88 44 -151 48 -91 156 -207
203 -216 28 -6 45 -24 21 -24 -14 0 -60 -71 -60 -93 0 -10 23 -39 50 -66 32
-31 50 -57 50 -72 0 -50 13 -71 52 -89 29 -13 49 -15 74 -10 29 7 36 5 40 -8
33 -107 107 -175 207 -188 55 -8 112 15 135 56 9 16 20 30 25 30 4 0 7 15 7
33 0 17 8 45 19 60 l18 28 7 -23 c3 -13 6 -34 6 -48 0 -27 73 -106 118 -129
88 -46 227 38 263 159 l11 36 54 -4 c68 -6 88 10 104 79 10 41 20 55 50 75 21
14 40 36 42 49 7 35 -20 84 -65 116 l-40 29 44 -2 c57 -3 85 16 159 108 105
131 130 221 106 381 -39 255 -113 359 -274 384 -78 11 -115 7 -139 -16 -8 -8
-30 -15 -48 -15 -46 0 -99 -51 -115 -110 -23 -88 -45 -114 -121 -143 -92 -36
-103 -34 -60 11 63 65 76 154 40 252 -35 94 -35 102 -8 100 59 -5 65 13 20 60
-22 24 -37 30 -70 30 -34 0 -41 3 -41 20 0 16 7 20 30 20 45 0 49 25 10 65
-24 25 -40 33 -54 29 -28 -7 -59 17 -51 38 5 13 12 15 32 7 13 -5 29 -7 34 -3
30 18 -23 101 -69 106 -21 2 -28 9 -30 31 -3 26 -2 27 22 16 36 -17 58 -5 52
27 -6 30 -43 74 -63 74 -15 0 -18 46 -3 55 5 3 21 -2 36 -12 25 -16 27 -16 40
2 22 30 16 55 -22 90 -31 29 -34 36 -25 54 l12 21 21 -20 c26 -24 32 -25 52
-4 22 22 20 57 -5 80 -31 28 -38 46 -28 73 l9 24 25 -27 c30 -33 45 -30 61 11
12 27 10 34 -12 66 -26 38 -29 54 -15 76 7 11 13 9 30 -8 29 -29 53 -23 64 16
8 26 5 37 -18 67 -18 24 -25 42 -20 56 l6 20 26 -20 c32 -25 49 -25 63 -1 16
31 12 56 -15 81 -24 23 -34 64 -17 74 5 3 16 -4 26 -15 24 -28 49 -20 60 20 9
31 7 36 -27 68 -38 34 -43 48 -28 72 7 11 13 10 35 -4 57 -37 70 41 15 87 -18
15 -37 28 -41 28 -9 0 -11 34 -2 43 4 3 19 0 34 -8 32 -17 40 -12 40 26 0 32
-31 66 -72 81 -20 7 -28 17 -28 34 0 23 3 24 35 18 32 -6 35 -4 35 19 0 39
-34 73 -80 81 -35 6 -41 10 -38 29 2 18 8 21 36 19 26 -3 32 0 32 17 0 11 -12
33 -26 50 -20 25 -34 31 -64 31 -25 0 -40 5 -44 16 -10 25 3 36 35 29 24 -6
29 -3 29 13 0 11 -11 34 -25 51 -20 23 -36 31 -68 33 -52 4 -60 31 -9 36 37 4
38 8 15 42 -29 43 -39 49 -84 52 -37 3 -44 7 -47 26 -3 22 -1 23 27 17 28 -6
31 -4 31 17 0 32 -37 66 -80 74 -33 7 -50 19 -50 38 0 4 16 5 35 2 33 -7 35
-6 35 22 0 17 -9 37 -22 49 -50 45 -192 70 -218 38z m443 -3287 c-8 -16 62
-52 99 -51 36 2 38 0 38 -27 0 -143 -72 -218 -257 -269 l-71 -19 -94 31 c-154
52 -197 100 -206 231 -5 65 -4 69 14 61 40 -17 75 -17 100 0 25 16 25 17 8 36
-9 10 -13 19 -8 19 15 0 29 -14 41 -42 7 -16 26 -31 47 -39 23 -8 36 -19 36
-31 0 -25 -44 -24 -87 3 -19 12 -36 19 -39 16 -19 -19 66 -127 100 -127 9 0
12 -9 9 -24 -4 -19 1 -28 26 -40 17 -9 31 -20 31 -24 0 -11 39 -52 49 -52 4 0
15 16 24 35 10 21 24 35 35 35 27 0 32 9 22 36 -8 21 -5 25 34 42 40 18 76 66
76 101 0 22 -30 23 -56 2 -34 -27 -74 -28 -74 -2 0 13 10 20 32 25 66 13 77
51 24 87 -28 19 -32 26 -23 41 11 16 14 15 42 -15 17 -18 29 -35 28 -39z
m-319 -480 c21 -29 20 -92 0 -123 -12 -18 -25 -25 -48 -25 -28 0 -35 6 -59 53
-15 28 -34 62 -43 74 -15 21 -15 22 18 32 62 18 115 13 132 -11z m430 16 c14
-5 12 -11 -9 -36 -14 -16 -25 -36 -25 -44 0 -46 -54 -99 -88 -86 -17 6 -42 55
-42 82 0 31 27 78 47 83 28 7 100 8 117 1z"/>
<path d="M3810 5504 c0 -52 -43 -232 -73 -304 -17 -42 -59 -111 -96 -160 -36
-47 -91 -120 -124 -162 l-59 -77 21 -133 c57 -367 80 -656 63 -778 -12 -85
-53 -195 -103 -276 l-29 -49 35 39 c39 44 46 38 15 -11 -11 -18 -17 -33 -15
-33 10 0 123 179 158 251 64 133 82 214 82 379 0 80 -6 229 -14 331 l-14 187
31 74 c95 229 173 503 176 617 1 73 -9 125 -24 116 -6 -3 -10 -1 -10 4 0 6 -4
11 -10 11 -5 0 -10 -12 -10 -26z"/>
<path d="M1487 5332 c-9 -168 -31 -271 -81 -377 -36 -76 -60 -108 -154 -207
-127 -135 -137 -157 -104 -232 12 -26 58 -84 109 -137 127 -133 547 -499 558
-487 3 2 -117 150 -266 328 -241 290 -267 325 -251 335 92 51 197 209 254 381
11 35 24 61 28 57 4 -4 67 -134 140 -288 210 -445 254 -587 254 -830 0 -147
-14 -227 -55 -307 -11 -21 -15 -38 -10 -38 5 0 11 7 15 15 3 8 10 15 16 15 8
0 7 -7 0 -22 -8 -18 -5 -16 14 6 39 47 103 184 125 270 27 103 27 227 2 327
-43 170 -202 546 -431 1025 -37 78 -80 168 -94 201 -15 32 -35 64 -45 70 -17
11 -18 4 -24 -105z"/>
<path d="M755 4677 c-22 -56 -30 -159 -16 -232 28 -150 167 -364 316 -484 68
-55 176 -124 183 -116 3 2 -21 33 -53 67 -161 174 -325 496 -366 722 -8 40
-18 67 -30 74 -15 10 -20 5 -34 -31z"/>
<path d="M3843 4303 c-10 -4 -13 -67 -13 -270 0 -296 -1 -293 69 -293 l41 0 0
118 0 117 88 1 c48 0 89 -3 92 -7 3 -5 5 -50 3 -101 -2 -107 10 -128 72 -128
l35 0 0 274 0 275 -22 7 c-34 11 -69 11 -76 0 -3 -6 -7 -55 -8 -111 -1 -55 -2
-103 -3 -107 0 -5 -41 -8 -91 -8 l-90 0 0 105 c0 96 -2 105 -21 116 -24 13
-58 18 -76 12z"/>
<path d="M4432 4284 c-57 -28 -100 -73 -134 -137 -34 -63 -32 -174 4 -242 32
-60 87 -114 148 -146 63 -33 186 -34 247 -1 54 28 107 83 133 138 29 60 29
178 0 239 -26 53 -106 130 -163 155 -64 30 -169 27 -235 -6z m228 -96 c50 -34
72 -71 78 -127 7 -75 -5 -118 -46 -163 -42 -47 -85 -68 -137 -68 -81 0 -144
53 -165 138 -13 58 -3 110 33 163 51 76 168 104 237 57z"/>
<path d="M4917 4302 c-9 -2 -17 -9 -18 -15 0 -7 -1 -128 -2 -269 -2 -202 0
-258 10 -258 7 0 13 -4 13 -10 0 -5 18 -10 40 -10 31 0 40 4 41 18 0 9 2 58 2
107 l2 90 72 6 c61 4 79 10 110 36 54 43 64 68 60 140 -3 56 -7 67 -37 99 -53
54 -78 63 -182 66 -52 2 -102 2 -111 0z m214 -113 c5 -8 9 -33 9 -56 0 -53
-25 -73 -91 -73 l-47 0 1 76 0 76 59 -4 c37 -3 63 -10 69 -19z"/>
<path d="M5400 4303 c-14 -3 -61 -114 -182 -430 -46 -118 -42 -133 31 -133
l40 0 28 80 28 80 98 0 c69 0 97 -3 97 -12 0 -26 46 -128 57 -128 7 0 13 -4
13 -10 0 -5 21 -10 46 -10 39 0 45 3 40 18 -13 38 -204 524 -209 528 -8 9 -70
20 -87 17z m66 -220 c10 -32 20 -64 22 -70 2 -9 -12 -13 -48 -13 -36 0 -50 4
-48 13 13 49 43 127 48 127 3 0 15 -26 26 -57z"/>
<path d="M5723 4302 l-23 -3 0 -266 c0 -298 -1 -292 72 -293 l37 0 3 110 3
111 65 -93 c86 -122 94 -128 152 -128 26 0 48 3 48 8 -1 4 -32 50 -70 102
l-70 95 40 13 c75 25 120 110 101 193 -12 55 -37 87 -92 121 -39 25 -55 28
-144 30 -55 2 -110 2 -122 0z m239 -122 c20 -25 23 -71 7 -102 -14 -26 -68
-48 -119 -48 l-40 0 0 91 0 92 67 -6 c53 -4 71 -10 85 -27z"/>
<path d="M6262 4285 c-97 -50 -155 -146 -155 -257 0 -123 79 -233 202 -279
111 -42 240 -8 308 80 29 37 31 44 19 57 -9 8 -34 14 -61 14 -38 0 -54 -6 -81
-30 -56 -48 -144 -53 -204 -10 -105 75 -88 270 30 330 74 38 151 26 214 -32
19 -18 116 -27 116 -11 0 21 -59 87 -106 119 -51 35 -60 38 -142 42 -79 3 -92
1 -140 -23z"/>
<path d="M1061 2532 c-45 -84 43 -307 230 -584 52 -76 180 -172 518 -390 84
-54 156 -96 159 -93 7 7 -23 80 -104 256 -154 336 -276 509 -461 658 -175 141
-315 204 -342 153z"/>
<path d="M1860 2098 c-13 -5 -28 -14 -32 -21 -27 -43 19 -213 128 -468 l79
-186 134 -84 c194 -121 273 -169 278 -169 11 0 -9 143 -33 232 -46 175 -177
403 -321 558 -103 111 -181 157 -233 138z"/>
<path d="M2473 1596 c-26 -23 -28 -29 -26 -93 3 -91 43 -345 57 -360 12 -13
258 -143 271 -143 24 0 -25 262 -75 392 -32 86 -95 174 -144 203 -24 14 -45
25 -49 25 -3 0 -19 -11 -34 -24z"/>
</g>
</svg>
